<svg version="1.1" id="Layer_1" xmlns="http://www.w3.org/2000/svg" xmlns:xlink="http://www.w3.org/1999/xlink" x="0px" y="0px"
	 viewBox="0 0 30 30" style="enable-background:new 0 0 30 30;" xml:space="preserve">
<style type="text/css">
	.st0{fill:none;}
	.st1{fill:#FFFFFF;}
	.st2{fill-rule:evenodd;clip-rule:evenodd;fill:#FFFFFF;}
</style>
<g id="Clip_2_xA0_Clipping_Path_2_">
	
		<rect id="XMLID_15_" x="-0.1" y="10" transform="matrix(0.7071 -0.7071 0.7071 0.7071 -6.2132 15)" class="st0" width="30.2" height="10"/>
</g>
<g id="Fill_1_5_">
	<g id="XMLID_45_">
		<path id="XMLID_46_" class="st1" d="M28.3,6.9l-5.2-5.2c-0.5-0.5-1.4-0.5-1.9,0L5.6,17.4c0,0,0,0,0,0c0,0-0.1,0.1-0.1,0.1
			c0,0,0,0,0,0c0,0.1,0,0.1-0.1,0.2c0,0,0,0,0,0L4.1,25c0,0.2,0,0.5,0.2,0.6c0.2,0.2,0.4,0.2,0.6,0.2l7.3-1.3c0,0,0,0,0,0
			c0.1,0,0.1,0,0.2-0.1c0,0,0,0,0,0c0.1,0,0.1-0.1,0.1-0.1c0,0,0,0,0,0L28.3,8.8C28.8,8.3,28.8,7.4,28.3,6.9z M7.3,24
			c-0.5-0.3-1-0.8-1.3-1.3l0.5-3c0.5,0.7,1.1,1.4,1.8,2c0.6,0.6,1.3,1.2,2,1.8L7.3,24z M12.1,23c-2-1.3-3.7-3.1-5-5L22.1,2.8l5,5
			L12.1,23z"/>
	</g>
</g>
<g id="Mask_by_Clip_2_xA0_Clipping_Path_2_">
	
		<rect id="XMLID_16_" x="-0.1" y="10" transform="matrix(0.7071 -0.7071 0.7071 0.7071 -6.2132 15)" class="st0" width="30.2" height="10"/>
</g>
<g id="Fill_4_1_">
	<g id="XMLID_24_">
		<path id="XMLID_25_" class="st2" d="M23.9,6.1c-0.3-0.3-0.7-0.3-1,0L10.4,18.6c-0.3,0.3-0.3,0.7,0,1c0.3,0.3,0.7,0.3,1,0L23.9,7.1
			C24.2,6.8,24.2,6.3,23.9,6.1z"/>
	</g>
</g>
</svg>
