<svg version="1.1" xmlns="http://www.w3.org/2000/svg" xmlns:xlink="http://www.w3.org/1999/xlink" x="0px" y="0px"
	 viewBox="0 0 32 8" style="enable-background:new 0 0 32 8;" xml:space="preserve">
<style type="text/css">
	.st0{fill:#F0D75D;}
</style>
<g id="Layer_2">
</g>
<g id="Layer_1">
	<g id="Oval_2_Copy_2_1_">
		<g id="XMLID_30_">
			<path id="XMLID_31_" class="st0" d="M28,2c1.1,0,2,0.9,2,2c0,1.1-0.9,2-2,2s-2-0.9-2-2C26,2.9,26.9,2,28,2 M28,0
				c-2.2,0-4,1.8-4,4c0,2.2,1.8,4,4,4s4-1.8,4-4C32,1.8,30.2,0,28,0L28,0z"/>
		</g>
	</g>
	<g id="Oval_2_Copy_3_1_">
		<g id="XMLID_24_">
			<path id="XMLID_25_" class="st0" d="M16,2c1.1,0,2,0.9,2,2c0,1.1-0.9,2-2,2c-1.1,0-2-0.9-2-2C14,2.9,14.9,2,16,2 M16,0
				c-2.2,0-4,1.8-4,4c0,2.2,1.8,4,4,4c2.2,0,4-1.8,4-4C20,1.8,18.2,0,16,0L16,0z"/>
		</g>
	</g>
	<g id="Oval_2_Copy_4_1_">
		<g id="XMLID_18_">
			<path id="XMLID_19_" class="st0" d="M4,2c1.1,0,2,0.9,2,2c0,1.1-0.9,2-2,2C2.9,6,2,5.1,2,4C2,2.9,2.9,2,4,2 M4,0C1.8,0,0,1.8,0,4
				c0,2.2,1.8,4,4,4c2.2,0,4-1.8,4-4C8,1.8,6.2,0,4,0L4,0z"/>
		</g>
	</g>
</g>
</svg>
